<?xml version="1.0" standalone="no"?><!DOCTYPE svg PUBLIC "-//W3C//DTD SVG 1.1//EN" "http://www.w3.org/Graphics/SVG/1.1/DTD/svg11.dtd"><svg class="icon" width="200px" height="197.11px" viewBox="0 0 1039 1024" version="1.1" xmlns="http://www.w3.org/2000/svg"><path fill="#ffffff" d="M1011.296677 412.899958 607.720062 98.818633c-58.950623-46.784536-132.378983-46.904263-191.095269-0.177032L12.81384 412.899958c-13.114692 10.160407-15.358803 30.873148-5.139044 43.809785 10.278087 12.995989 29.299303 17.10968 42.176588 7.125281l78.413907-61.024865 0 367.366925c0 121.391744 51.42523 188.743712 173.997869 188.743712l423.422615 0c122.573663 0 169.83199-69.88465 169.83199-191.334723L895.517767 402.582985l78.682014 61.252039c5.434779 4.253884 11.990079 6.323009 18.548448 6.323009 8.859785 0 17.721617-4.924149 23.629163-12.424984C1026.596128 444.797435 1024.352017 423.061388 1011.296677 412.899958zM639.705544 895.579165 383.741871 895.579165 383.741871 639.492696l255.963673 0L639.705544 895.579165zM831.761698 766.780731c0 79.670527-30.529317 128.798435-106.074897 128.798435l-22.01541 0 0-258.855536c-0.085958-2.705622-2.65548-60.789505-60.487629-60.789505L380.26263 575.934125c2.303462 0-60.488653-1.299599-60.488653 60.488653l0 259.156388-17.510816 0c-67.260893 0-110.643959-51.17452-110.643959-128.255059l-0.046049-413.782048 262.385942-204.199729c36.860513-29.241998 79.271438-29.299303 116.487038 0.176009l261.314541 203.430202L831.760674 766.780731zM703.671391 636.422777l0 0.300852C703.677531 636.916011 703.671391 636.836193 703.671391 636.422777z" /></svg>